<svg width="24" height="24" viewBox="0 0 24 24" fill="none" xmlns="http://www.w3.org/2000/svg">
<path d="M21.997 18.23C21.997 18.957 21.592 20.357 20.682 21.126C20.5 21.266 20.318 21.187 20.398 20.983C20.663 20.335 21.269 18.836 20.985 18.491C20.784 18.229 19.954 18.249 19.246 18.309C18.923 18.35 18.639 18.369 18.419 18.414C18.215 18.43 18.174 18.251 18.378 18.111C18.6438 17.9236 18.9373 17.7792 19.248 17.683C20.398 17.339 21.727 17.546 21.918 17.766C21.954 17.808 21.997 17.927 21.997 18.23ZM20.075 19.523C19.8121 19.7258 19.535 19.9096 19.246 20.073C17.124 21.348 14.375 22.016 11.988 22.016C8.145 22.016 4.708 20.599 2.1 18.228C1.876 18.046 2.061 17.782 2.323 17.925C5.133 19.565 8.611 20.557 12.211 20.557C14.477 20.557 16.919 20.133 19.246 19.221C19.409 19.16 19.591 19.077 19.75 19.019C20.117 18.854 20.44 19.261 20.075 19.523ZM13.905 8.493C13.905 7.452 13.947 6.839 13.602 6.313C13.296 5.88 12.769 5.62 12.033 5.661C11.235 5.705 10.378 6.228 10.16 7.187C10.117 7.407 9.989 7.623 9.723 7.67L7.288 7.36C7.114 7.32 6.849 7.187 6.936 6.839C7.459 4.088 9.81 3.129 12.034 3H12.556C13.776 3 15.344 3.349 16.347 4.264C17.564 5.4 17.434 6.926 17.434 8.584V12.511C17.434 13.689 17.912 14.211 18.392 14.825C18.522 15.044 18.567 15.302 18.348 15.48C17.718 16.0417 17.0789 16.5931 16.431 17.134C16.256 17.267 15.942 17.281 15.821 17.179C15.051 16.534 14.863 16.176 14.386 15.521C13.556 16.392 12.859 16.873 12.03 17.134C11.4471 17.2823 10.8475 17.3549 10.246 17.35C8.156 17.35 6.501 16.047 6.501 13.47C6.501 11.421 7.591 10.028 9.201 9.369C10.811 8.709 13.151 8.499 13.905 8.495M13.428 13.687C13.948 12.815 13.905 12.101 13.905 10.502C13.253 10.502 12.599 10.547 12.034 10.68C10.989 10.983 10.159 11.64 10.159 13.035C10.159 14.125 10.727 14.867 11.685 14.867C11.817 14.867 11.933 14.852 12.033 14.822C12.703 14.636 13.121 14.3 13.428 13.687Z" fill="white"/>
</svg>
