<?xml version="1.0" encoding="UTF-8"?>
<svg id="Calque_1" xmlns="http://www.w3.org/2000/svg" xmlns:xlink="http://www.w3.org/1999/xlink" viewBox="0 0 4093.36 7948.01">
  <defs>
    <style>
      .cls-1 {
        fill: url(#Ciel_bleu-2);
        stroke: url(#Dégradé_sans_nom_21-3);
      }

      .cls-1, .cls-2, .cls-3, .cls-4, .cls-5, .cls-6, .cls-7, .cls-8 {
        stroke-miterlimit: 10;
      }

      .cls-1, .cls-2, .cls-3, .cls-6 {
        opacity: .28;
      }

      .cls-2 {
        fill: url(#Ciel_bleu-3);
        stroke: url(#Dégradé_sans_nom_21-4);
      }

      .cls-3 {
        fill: url(#Ciel_bleu-4);
        stroke: url(#Dégradé_sans_nom_21-5);
      }

      .cls-9 {
        fill: #27ade4;
      }

      .cls-4 {
        stroke-width: 5px;
      }

      .cls-4, .cls-7 {
        stroke: blue;
      }

      .cls-4, .cls-7, .cls-8 {
        fill: none;
      }

      .cls-5 {
        fill: url(#Dégradé_sans_nom_53);
        stroke: url(#Dégradé_sans_nom_21);
      }

      .cls-6 {
        fill: url(#Ciel_bleu);
        stroke: url(#Dégradé_sans_nom_21-2);
      }

      .cls-7 {
        stroke-width: 2px;
      }

      .cls-10 {
        fill: url(#Dégradé_sans_nom_66);
      }

      .cls-11 {
        fill: url(#Dégradé_sans_nom_66-12);
      }

      .cls-12 {
        fill: url(#Dégradé_sans_nom_66-11);
      }

      .cls-13 {
        fill: url(#Dégradé_sans_nom_66-10);
      }

      .cls-8 {
        stroke: #27ade4;
        stroke-width: 4px;
      }

      .cls-14 {
        fill: #23a9e0;
        opacity: .73;
      }

      .cls-15 {
        fill: url(#Dégradé_sans_nom_66-7);
      }

      .cls-16 {
        fill: url(#Dégradé_sans_nom_66-6);
      }

      .cls-17 {
        fill: url(#Dégradé_sans_nom_66-8);
      }

      .cls-18 {
        fill: url(#Dégradé_sans_nom_66-4);
      }

      .cls-19 {
        fill: url(#Dégradé_sans_nom_66-3);
      }

      .cls-20 {
        fill: url(#Dégradé_sans_nom_66-2);
      }

      .cls-21 {
        fill: url(#Dégradé_sans_nom_66-5);
      }

      .cls-22 {
        fill: url(#Dégradé_sans_nom_66-9);
      }
    </style>
    <linearGradient id="Dégradé_sans_nom_53" data-name="Dégradé sans nom 53" x1=".5" y1="3974.01" x2="4092.86" y2="3974.01" gradientUnits="userSpaceOnUse">
      <stop offset="0" stop-color="#2a4b9b"/>
      <stop offset=".95" stop-color="#1d1d51"/>
    </linearGradient>
    <linearGradient id="Dégradé_sans_nom_21" data-name="Dégradé sans nom 21" x1="0" y1="3974.01" x2="4093.36" y2="3974.01" gradientUnits="userSpaceOnUse">
      <stop offset="0" stop-color="blue"/>
      <stop offset=".99" stop-color="#002440"/>
    </linearGradient>
    <linearGradient id="Dégradé_sans_nom_66" data-name="Dégradé sans nom 66" x1="2582.34" y1="1614.53" x2="3405.23" y2="1614.53" gradientUnits="userSpaceOnUse">
      <stop offset=".32" stop-color="#23a9e0" stop-opacity=".33"/>
      <stop offset=".91" stop-color="#23a9e0" stop-opacity="0"/>
    </linearGradient>
    <linearGradient id="Ciel_bleu" data-name="Ciel bleu" x1="3165.85" y1="2555.32" x2="3966.95" y2="2555.32" gradientUnits="userSpaceOnUse">
      <stop offset="0" stop-color="#3ddeed"/>
      <stop offset="1" stop-color="#3ddeed" stop-opacity="0"/>
    </linearGradient>
    <linearGradient id="Dégradé_sans_nom_21-2" data-name="Dégradé sans nom 21" x1="3165.34" y1="2555.32" x2="3967.45" y2="2555.32" xlink:href="#Dégradé_sans_nom_21"/>
    <linearGradient id="Dégradé_sans_nom_66-2" data-name="Dégradé sans nom 66" x1="2692.52" y1="2181.51" x2="2690.27" y2="2553.99" xlink:href="#Dégradé_sans_nom_66"/>
    <linearGradient id="Dégradé_sans_nom_66-3" data-name="Dégradé sans nom 66" x1="912.57" y1="655.52" x2="1735.46" y2="655.52" gradientTransform="translate(1925.23 1729.55) rotate(179.8)" xlink:href="#Dégradé_sans_nom_66"/>
    <linearGradient id="Ciel_bleu-2" data-name="Ciel bleu" x1="962.74" y1="1356.65" x2="1763.84" y2="1356.65" gradientTransform="translate(1925.23 1729.55) rotate(179.8)" xlink:href="#Ciel_bleu"/>
    <linearGradient id="Dégradé_sans_nom_21-3" data-name="Dégradé sans nom 21" x1="962.24" y1="1356.65" x2="1764.34" y2="1356.65" gradientTransform="translate(1925.23 1729.55) rotate(179.8)" xlink:href="#Dégradé_sans_nom_21"/>
    <linearGradient id="Dégradé_sans_nom_66-4" data-name="Dégradé sans nom 66" x1="754.18" y1="1173.81" x2="751.93" y2="1546.29" gradientTransform="translate(952.73 -881.41) rotate(.57)" xlink:href="#Dégradé_sans_nom_66"/>
    <linearGradient id="Ciel_bleu-3" data-name="Ciel bleu" x1="1159.82" y1="2925.8" x2="1960.92" y2="2925.8" gradientTransform="translate(4109.84 2461.97) rotate(90.63)" xlink:href="#Ciel_bleu"/>
    <linearGradient id="Dégradé_sans_nom_21-4" data-name="Dégradé sans nom 21" x1="1159.32" y1="2925.8" x2="1961.42" y2="2925.8" gradientTransform="translate(4109.84 2461.97) rotate(90.63)" xlink:href="#Dégradé_sans_nom_21"/>
    <linearGradient id="Dégradé_sans_nom_66-5" data-name="Dégradé sans nom 66" x1="217.45" y1="3100.92" x2="1040.34" y2="3100.92" xlink:href="#Dégradé_sans_nom_66"/>
    <linearGradient id="Dégradé_sans_nom_66-6" data-name="Dégradé sans nom 66" x1="456.12" y1="4286.6" x2="453.87" y2="4659.08" xlink:href="#Dégradé_sans_nom_66"/>
    <linearGradient id="Dégradé_sans_nom_66-7" data-name="Dégradé sans nom 66" x1="3555.48" y1="4439.82" x2="3553.23" y2="4812.29" gradientTransform="translate(7253.67 1536.38) rotate(89.53)" xlink:href="#Dégradé_sans_nom_66"/>
    <linearGradient id="Ciel_bleu-4" data-name="Ciel bleu" x1="1909.71" y1="544.78" x2="2710.81" y2="544.78" gradientTransform="translate(4095.74 2431.88) rotate(90.07)" xlink:href="#Ciel_bleu"/>
    <linearGradient id="Dégradé_sans_nom_21-5" data-name="Dégradé sans nom 21" x1="1909.2" y1="544.78" x2="2711.31" y2="544.78" gradientTransform="translate(4095.74 2431.88) rotate(90.07)" xlink:href="#Dégradé_sans_nom_21"/>
    <linearGradient id="Dégradé_sans_nom_66-8" data-name="Dégradé sans nom 66" x1="2375.79" y1="5606.63" x2="3198.69" y2="5606.63" xlink:href="#Dégradé_sans_nom_66"/>
    <linearGradient id="Dégradé_sans_nom_66-9" data-name="Dégradé sans nom 66" x1="672.24" y1="7548.45" x2="1495.13" y2="7548.45" xlink:href="#Dégradé_sans_nom_66"/>
    <linearGradient id="Dégradé_sans_nom_66-10" data-name="Dégradé sans nom 66" x1="5471.39" y1="6690.59" x2="5469.14" y2="7063.07" gradientTransform="translate(7253.67 1536.38) rotate(89.53)" xlink:href="#Dégradé_sans_nom_66"/>
    <linearGradient id="Dégradé_sans_nom_66-11" data-name="Dégradé sans nom 66" x1="3118.67" y1="3927.15" x2="3941.56" y2="3927.15" xlink:href="#Dégradé_sans_nom_66"/>
    <linearGradient id="Dégradé_sans_nom_66-12" data-name="Dégradé sans nom 66" x1="5305.15" y1="5973.67" x2="5302.9" y2="6346.15" gradientTransform="translate(-4666.4 12592.58) rotate(-91.85)" xlink:href="#Dégradé_sans_nom_66"/>
  </defs>
  <rect class="cls-5" x=".5" y=".5" width="4092.36" height="7947.01"/>
  <g>
    <polygon class="cls-14" points="3216.54 1487.49 3239.78 1459.27 3335.29 1458.89 3358.56 1487.17 3216.54 1487.49"/>
    <polygon class="cls-7" points="2544.39 1485.11 2544.39 1592.98 2699.85 1751.61 3353.39 1754.78 3445.39 1665.95 3445.39 1491.46 3045.65 1494.63 3013.93 1523.18 2810.89 1523.18 2779.16 1485.11 2544.39 1485.11"/>
    <polygon class="cls-14" points="2549.61 1627.86 2549.61 1739.3 2654.61 1739.3 2549.61 1627.86"/>
    <polygon class="cls-14" points="2797.66 1477.86 2819.86 1501.33 3003.82 1501.33 3026.02 1479.76 2797.66 1477.86"/>
    <polygon class="cls-14" points="2776.55 1749.62 2776.57 1734.92 3009.09 1735.94 3009.09 1754.38 2776.55 1749.62"/>
    <polygon class="cls-10" points="2582.34 1519.93 2583.17 1579.37 2710.42 1708.28 3339.93 1709.12 3405.23 1641.31 3405.23 1529.14 3056.15 1529.98 3031.04 1557.6 2784.92 1557.6 2752.27 1520.77 2582.34 1519.93"/>
  </g>
  <g>
    <polygon class="cls-4" points="3124.01 2261.14 3893.63 2259.59 4017.11 2332.15 4018.3 2591.51 3873.25 2781.4 3610.72 2784.48 3556.77 2852.41 3349.39 2857.04 3295.44 2787.57 3124.01 2787.57 3124.01 2261.14"/>
    <polygon class="cls-14" points="3124.46 2474.86 3150.18 2501.38 3154.42 2642.79 3123.57 2673.07 3123.25 2741.42 3091.23 2707.59 3087.21 2600.77 3124.41 2565.06 3124.46 2474.86"/>
    <polygon class="cls-9" points="3940.31 2669.21 3940.31 2694.61 3940.31 2711.29 4029.9 2600.15 4029.9 2508.06 4007.5 2508.85 4007.67 2587.88 3940.31 2669.21"/>
    <polygon class="cls-9" points="3446.77 2248.33 3446.77 2273.11 3752.46 2272.22 3752.46 2245.67 3446.77 2248.33"/>
    <polyline class="cls-8" points="3103.79 2500.94 3104.22 2239.93 3253.88 2239.93"/>
    <polygon class="cls-6" points="3168.02 2320.53 3880.96 2316.32 3963.68 2368.18 3966.95 2558.82 3847.22 2714.41 3585.99 2715.81 3532.66 2792.91 3366.12 2794.31 3309.52 2721.42 3165.85 2720.02 3168.02 2320.53"/>
  </g>
  <g>
    <path class="cls-7" d="M2809.59,2395.03l1.14-132.75,8.29,6.07.42-31.18-65.14-63.62c-1.68,1.86-4.26,3.34-8.26,3.34l-98.88-97.26s-.21-4.9,2.36-8.41l-82.65-80.72v431.06l5.51-4.72-.13,106.35-5.38-4.71v48.07l51.7,36.93,110.78,1.48,36.93-36.93,48.74-1.48,2.39-177.85-7.81,6.34Z"/>
    <polygon class="cls-14" points="2547.73 2435.83 2548.1 2503.08 2567.84 2519.6 2567.84 2419.37 2547.73 2435.83"/>
    <polygon class="cls-14" points="2849.14 2369.31 2848.99 2280.38 2818.55 2261.72 2816.47 2391.49 2849.14 2369.31"/>
    <path class="cls-14" d="M2756.56,2165.75l-100.68-97.29c-3.68,0-5.95,1.51-7.38,3.44l104.96,101.23c2.88-3.14,3.1-7.39,3.1-7.39Z"/>
    <polygon class="cls-20" points="2603.85 2086.43 2600.5 2545.22 2630.64 2570.89 2714.36 2573.13 2747.85 2535.17 2780.22 2534.06 2780.22 2256.1 2603.85 2086.43"/>
  </g>
  <g>
    <polygon class="cls-14" points="376.64 1206.43 353.5 1234.72 257.99 1235.44 234.63 1207.23 376.64 1206.43"/>
    <polygon class="cls-7" points="1048.79 1206.47 1048.42 1098.61 892.41 940.52 238.87 939.61 147.17 1028.76 147.77 1203.25 547.5 1198.69 579.13 1170.03 782.17 1169.33 814.02 1207.29 1048.79 1206.47"/>
    <polygon class="cls-14" points="1043.09 1063.74 1042.7 952.31 937.69 952.67 1043.09 1063.74"/>
    <polygon class="cls-14" points="795.55 1214.61 773.27 1191.22 589.31 1191.85 567.18 1213.5 795.55 1214.61"/>
    <polygon class="cls-14" points="815.72 942.77 815.75 957.47 583.23 957.25 583.17 938.82 815.72 942.77"/>
    <polygon class="cls-19" points="1010.73 1171.79 1009.69 1112.36 882 983.88 252.48 985.22 187.42 1053.26 187.81 1165.43 536.88 1163.38 561.9 1135.67 808.01 1134.82 840.79 1171.54 1010.73 1171.79"/>
  </g>
  <g>
    <polygon class="cls-4" points="1000.65 670.28 231.05 674.49 107.32 602.36 105.23 343 249.62 152.61 512.14 148.62 565.85 80.5 773.22 75.15 827.41 144.44 998.83 143.84 1000.65 670.28"/>
    <polygon class="cls-14" points="999.47 456.56 973.66 430.12 968.93 288.73 999.67 258.35 999.75 189.99 1031.89 223.72 1036.28 330.52 999.21 366.36 999.47 456.56"/>
    <polygon class="cls-9" points="182.95 265.03 182.86 239.63 182.8 222.96 93.6 334.4 93.92 426.49 116.31 425.62 115.87 346.59 182.95 265.03"/>
    <polygon class="cls-9" points="677.95 684.2 677.86 659.42 372.17 661.37 372.27 687.91 677.95 684.2"/>
    <polyline class="cls-8" points="1020.04 430.4 1020.52 691.41 870.86 691.93"/>
    <polygon class="cls-1" points="956.44 611.04 243.52 617.71 160.62 566.14 156.69 375.51 275.88 219.51 537.11 217.2 590.17 139.92 756.7 137.95 813.55 210.64 957.23 211.54 956.44 611.04"/>
  </g>
  <g>
    <path class="cls-7" d="M1810.2,514.48l2.45-132.73,8.23,6.15.73-31.18-64.51-64.26c-1.7,1.84-4.3,3.29-8.29,3.25l-97.92-98.24s-.16-4.9,2.44-8.38l-81.85-81.53-4.27,431.03,5.56-4.67-1.19,106.34-5.33-4.76-.48,48.07,51.33,37.44,110.76,2.57,37.29-36.56,48.75-.99,4.15-177.82-7.87,6.26Z"/>
    <polygon class="cls-14" points="1547.95 552.68 1547.65 619.94 1567.23 636.65 1568.22 536.42 1547.95 552.68"/>
    <polygon class="cls-14" points="1850.01 489.15 1850.74 400.22 1820.48 381.26 1817.11 511.01 1850.01 489.15"/>
    <path class="cls-14" d="M1759.45,284.68l-99.71-98.28c-3.68-.04-5.97,1.45-7.42,3.37l103.95,102.27c2.91-3.11,3.17-7.36,3.17-7.36Z"/>
    <polygon class="cls-18" points="1607.52 203.85 1599.63 662.59 1629.52 688.56 1713.21 691.63 1747.08 654.01 1779.46 653.21 1782.21 375.27 1607.52 203.85"/>
  </g>
  <g>
    <polygon class="cls-4" points="1466.02 3550.79 1459.06 4320.37 1385.14 4443.04 1125.78 4441.37 937.51 4294.22 937.32 4031.67 870 3976.98 867.66 3769.55 937.72 3716.38 939.62 3544.97 1466.02 3550.79"/>
    <polygon class="cls-14" points="1252.31 3548.86 1225.5 3574.29 1084.06 3576.96 1054.12 3545.79 985.77 3544.71 1019.96 3513.07 1126.81 3510.23 1162.11 3547.82 1252.31 3548.86"/>
    <polygon class="cls-9" points="1048.94 4362.52 1023.54 4362.24 1006.87 4362.06 1117.01 4452.87 1209.09 4453.89 1208.55 4431.48 1129.52 4430.78 1048.94 4362.52"/>
    <polygon class="cls-9" points="1475.26 3873.66 1450.48 3873.39 1447.99 4179.07 1474.53 4179.36 1475.26 3873.66"/>
    <polyline class="cls-8" points="1226.45 3527.92 1487.44 3531.23 1485.79 3680.88"/>
    <polygon class="cls-2" points="1406.15 3594.14 1402.47 4307.08 1349.69 4389.22 1159.03 4390.38 1004.78 4268.93 1006.26 4007.71 929.76 3953.52 930.2 3786.98 1003.71 3731.19 1006.71 3587.54 1406.15 3594.14"/>
  </g>
  <g>
    <polygon class="cls-14" points="851.65 2973.89 874.89 2945.67 970.4 2945.28 993.67 2973.57 851.65 2973.89"/>
    <polygon class="cls-7" points="179.5 2971.51 179.5 3079.38 334.96 3238.01 988.5 3241.18 1080.5 3152.35 1080.5 2977.86 680.76 2981.03 649.04 3009.58 446 3009.58 414.27 2971.51 179.5 2971.51"/>
    <polygon class="cls-14" points="184.71 3114.26 184.71 3225.7 289.72 3225.7 184.71 3114.26"/>
    <polygon class="cls-14" points="432.77 2964.25 454.97 2987.72 638.93 2987.72 661.13 2966.16 432.77 2964.25"/>
    <polygon class="cls-14" points="411.66 3236.02 411.68 3221.32 644.2 3222.34 644.2 3240.78 411.66 3236.02"/>
    <polygon class="cls-21" points="217.45 3006.33 218.28 3065.76 345.53 3194.68 975.04 3195.52 1040.34 3127.71 1040.34 3015.54 691.26 3016.37 666.15 3044 420.03 3044 387.38 3007.17 217.45 3006.33"/>
  </g>
  <g>
    <path class="cls-7" d="M573.19,4500.12l1.14-132.75,8.29,6.07.42-31.18-65.14-63.62c-1.68,1.86-4.26,3.34-8.26,3.34l-98.88-97.26s-.21-4.9,2.36-8.41l-82.65-80.72v431.06l5.51-4.72-.13,106.35-5.38-4.71v48.07l51.7,36.93,110.78,1.48,36.93-36.93,48.74-1.48,2.39-177.85-7.81,6.34Z"/>
    <polygon class="cls-14" points="311.33 4540.92 311.7 4608.18 331.44 4624.7 331.44 4524.46 311.33 4540.92"/>
    <polygon class="cls-14" points="612.74 4474.4 612.59 4385.47 582.15 4366.81 580.06 4496.59 612.74 4474.4"/>
    <path class="cls-14" d="M520.16,4270.84l-100.68-97.29c-3.68,0-5.95,1.51-7.38,3.44l104.96,101.23c2.88-3.14,3.1-7.39,3.1-7.39Z"/>
    <polygon class="cls-16" points="367.44 4191.52 364.1 4650.31 394.24 4675.99 477.96 4678.22 511.45 4640.27 543.82 4639.15 543.82 4361.2 367.44 4191.52"/>
  </g>
  <g>
    <path class="cls-7" d="M2630.3,5246.64l132.75.06-6,8.34,31.19.17,63.08-65.65c-1.87-1.67-3.37-4.24-3.4-8.23l96.46-99.67s4.9-.25,8.42,2.29l80.04-83.3-431.04,3.5,4.77,5.47-106.34.73,4.66-5.42-48.07.39-36.5,51.99-.58,110.79,37.22,36.62,1.87,48.73,177.87.95-6.4-7.76Z"/>
    <polygon class="cls-14" points="2587.38 4985.12 2520.13 4986.04 2503.77 5005.91 2604 5005.1 2587.38 4985.12"/>
    <polygon class="cls-14" points="2656.35 5285.98 2745.27 5285.11 2763.68 5254.52 2633.89 5253.49 2656.35 5285.98"/>
    <path class="cls-14" d="M2859.15,5191.76l96.47-101.46c-.03-3.68-1.56-5.94-3.5-7.36l-100.38,105.78c3.16,2.85,7.42,3.04,7.42,3.04Z"/>
    <polygon class="cls-15" points="2937.22 5038.4 2478.42 5038.78 2452.99 5069.13 2451.44 5152.86 2489.66 5186.04 2491.04 5218.4 2768.99 5216.14 2937.22 5038.4"/>
  </g>
  <g>
    <polygon class="cls-4" points="3842.98 4299.47 3843.63 5069.08 3770.93 5192.47 3511.57 5193.37 3321.85 5048.1 3319.06 4785.56 3251.2 4731.54 3246.81 4524.15 3316.34 4470.28 3316.54 4298.86 3842.98 4299.47"/>
    <polygon class="cls-14" points="3629.25 4299.66 3602.7 4325.35 3461.29 4329.42 3431.04 4298.55 3362.69 4298.15 3396.56 4266.16 3503.38 4262.27 3539.05 4299.51 3629.25 4299.66"/>
    <polygon class="cls-9" points="3433.95 5115.29 3408.55 5115.26 3391.88 5115.24 3502.92 5204.96 3595 5205.06 3594.23 5182.67 3515.2 5182.75 3433.95 5115.29"/>
    <polygon class="cls-9" points="3855.41 4622.23 3830.63 4622.2 3831.16 4927.9 3857.71 4927.93 3855.41 4622.23"/>
    <polyline class="cls-8" points="3603.19 4278.97 3864.2 4279.7 3864.03 4429.36"/>
    <polygon class="cls-3" points="3783.53 4343.41 3786.91 5056.35 3734.95 5139.01 3544.32 5142.06 3388.86 5022.15 3387.76 4760.91 3310.73 4707.49 3309.52 4540.96 3382.48 4484.44 3384.05 4340.77 3783.53 4343.41"/>
  </g>
  <g>
    <polygon class="cls-14" points="3010 5479.6 3033.24 5451.38 3128.75 5450.99 3152.01 5479.28 3010 5479.6"/>
    <polygon class="cls-7" points="2337.85 5477.22 2337.85 5585.09 2493.31 5743.71 3146.85 5746.89 3238.85 5658.06 3238.85 5483.57 2839.11 5486.74 2807.39 5515.29 2604.35 5515.29 2572.62 5477.22 2337.85 5477.22"/>
    <polygon class="cls-14" points="2343.06 5619.97 2343.06 5731.41 2448.07 5731.41 2343.06 5619.97"/>
    <polygon class="cls-14" points="2591.12 5469.96 2613.32 5493.43 2797.28 5493.43 2819.48 5471.87 2591.12 5469.96"/>
    <polygon class="cls-14" points="2570.01 5741.73 2570.03 5727.03 2802.55 5728.05 2802.55 5746.49 2570.01 5741.73"/>
    <polygon class="cls-17" points="2375.79 5512.04 2376.63 5571.47 2503.87 5700.39 3133.39 5701.23 3198.69 5633.42 3198.69 5521.25 2849.61 5522.08 2824.49 5549.71 2578.38 5549.71 2545.73 5512.87 2375.79 5512.04"/>
  </g>
  <g>
    <polygon class="cls-14" points="1306.44 7421.41 1329.68 7393.19 1425.19 7392.81 1448.46 7421.1 1306.44 7421.41"/>
    <polygon class="cls-7" points="634.3 7419.04 634.3 7526.9 789.75 7685.53 1443.29 7688.7 1535.3 7599.87 1535.3 7425.38 1135.56 7428.55 1103.83 7457.11 900.79 7457.11 869.06 7419.04 634.3 7419.04"/>
    <polygon class="cls-14" points="639.51 7561.79 639.51 7673.22 744.51 7673.22 639.51 7561.79"/>
    <polygon class="cls-14" points="887.56 7411.78 909.76 7435.25 1093.72 7435.25 1115.92 7413.68 887.56 7411.78"/>
    <polygon class="cls-14" points="866.46 7683.55 866.48 7668.84 1098.99 7669.87 1098.99 7688.3 866.46 7683.55"/>
    <polygon class="cls-22" points="672.24 7453.85 673.08 7513.29 800.32 7642.21 1429.84 7643.04 1495.13 7575.24 1495.13 7463.06 1146.05 7463.9 1120.94 7491.52 874.82 7491.52 842.18 7454.69 672.24 7453.85"/>
  </g>
  <g>
    <path class="cls-7" d="M395.17,7180.77l132.75.06-6,8.34,31.19.17,63.08-65.65c-1.87-1.67-3.37-4.24-3.4-8.23l96.46-99.67s4.9-.25,8.42,2.29l80.04-83.3-431.04,3.5,4.77,5.47-106.34.73,4.66-5.42-48.07.39-36.5,51.99-.58,110.79,37.22,36.62,1.87,48.73,177.87.95-6.4-7.76Z"/>
    <polygon class="cls-14" points="352.24 6919.26 284.99 6920.17 268.63 6940.05 368.87 6939.23 352.24 6919.26"/>
    <polygon class="cls-14" points="421.21 7220.12 510.14 7219.25 528.55 7188.65 398.76 7187.62 421.21 7220.12"/>
    <path class="cls-14" d="M624.01,7125.89l96.47-101.46c-.03-3.68-1.56-5.94-3.5-7.36l-100.38,105.78c3.16,2.85,7.42,3.04,7.42,3.04Z"/>
    <polygon class="cls-13" points="702.09 6972.53 243.28 6972.91 217.85 7003.26 216.3 7086.99 254.53 7120.17 255.91 7152.54 533.85 7150.28 702.09 6972.53"/>
  </g>
  <g>
    <polygon class="cls-14" points="3752.87 3800.11 3776.11 3771.89 3871.62 3771.51 3894.89 3799.79 3752.87 3800.11"/>
    <polygon class="cls-7" points="3080.73 3797.73 3080.73 3905.6 3236.18 4064.23 3889.72 4067.4 3981.73 3978.57 3981.73 3804.08 3581.99 3807.25 3550.26 3835.8 3347.22 3835.8 3315.5 3797.73 3080.73 3797.73"/>
    <polygon class="cls-14" points="3085.94 3940.48 3085.94 4051.92 3190.95 4051.92 3085.94 3940.48"/>
    <polygon class="cls-14" points="3333.99 3790.48 3356.19 3813.95 3540.15 3813.95 3562.36 3792.38 3333.99 3790.48"/>
    <polygon class="cls-14" points="3312.89 4062.24 3312.91 4047.54 3545.42 4048.56 3545.42 4067 3312.89 4062.24"/>
    <polygon class="cls-12" points="3118.67 3832.55 3119.51 3891.99 3246.75 4020.9 3876.27 4021.74 3941.56 3953.93 3941.56 3841.76 3592.48 3842.6 3567.37 3870.22 3321.25 3870.22 3288.61 3833.39 3118.67 3832.55"/>
  </g>
  <g>
    <path class="cls-7" d="M1342.41,6973.34l-132.72,3.15,5.8-8.48-31.18.59-61.48,67.16c1.91,1.62,3.47,4.15,3.6,8.14l-94.02,101.97s-4.89.36-8.48-2.08l-78.01,85.21,430.83-13.92-4.9-5.36,106.3-3.3-4.53,5.53,48.05-1.55,35.24-52.86-2.1-110.77-38.1-35.71-3.05-48.67-177.84,3.35,6.59,7.6Z"/>
    <polygon class="cls-14" points="1391.65 7233.74 1458.86 7231.2 1474.73 7210.94 1374.54 7214.17 1391.65 7233.74"/>
    <polygon class="cls-14" points="1315.42 6934.64 1226.55 6937.66 1208.88 6968.69 1338.66 6966.58 1315.42 6934.64"/>
    <path class="cls-14" d="M1114.96,7033.74l-93.99,103.77c.12,3.68,1.7,5.9,3.68,7.27l97.79-108.18c-3.23-2.77-7.49-2.86-7.49-2.86Z"/>
    <polygon class="cls-11" points="1040.62 7188.94 1499.28 7177.47 1523.97 7146.52 1523.49 7062.77 1484.48 7030.52 1482.32 6998.2 1204.51 7007.18 1040.62 7188.94"/>
  </g>
</svg>