<svg width="42" height="42" viewBox="0 0 42 42" fill="none" xmlns="http://www.w3.org/2000/svg">
<path d="M5.01211 18.375C3.69141 18.375 2.625 17.3086 2.625 15.9879C2.625 15.832 2.64141 15.6844 2.67422 15.5285C3.10898 13.8059 6.46406 2.625 21 2.625C35.5359 2.625 38.891 13.8059 39.3258 15.5285C39.3668 15.6844 39.375 15.832 39.375 15.9879C39.375 17.3086 38.3086 18.375 36.9879 18.375H5.01211ZM11.8125 10.5C11.8125 10.1519 11.6742 9.81806 11.4281 9.57192C11.1819 9.32578 10.8481 9.1875 10.5 9.1875C10.1519 9.1875 9.81806 9.32578 9.57192 9.57192C9.32578 9.81806 9.1875 10.1519 9.1875 10.5C9.1875 10.8481 9.32578 11.1819 9.57192 11.4281C9.81806 11.6742 10.1519 11.8125 10.5 11.8125C10.8481 11.8125 11.1819 11.6742 11.4281 11.4281C11.6742 11.1819 11.8125 10.8481 11.8125 10.5ZM31.5 11.8125C31.8481 11.8125 32.1819 11.6742 32.4281 11.4281C32.6742 11.1819 32.8125 10.8481 32.8125 10.5C32.8125 10.1519 32.6742 9.81806 32.4281 9.57192C32.1819 9.32578 31.8481 9.1875 31.5 9.1875C31.1519 9.1875 30.8181 9.32578 30.5719 9.57192C30.3258 9.81806 30.1875 10.1519 30.1875 10.5C30.1875 10.8481 30.3258 11.1819 30.5719 11.4281C30.8181 11.6742 31.1519 11.8125 31.5 11.8125ZM22.3125 7.875C22.3125 7.5269 22.1742 7.19306 21.9281 6.94692C21.6819 6.70078 21.3481 6.5625 21 6.5625C20.6519 6.5625 20.3181 6.70078 20.0719 6.94692C19.8258 7.19306 19.6875 7.5269 19.6875 7.875C19.6875 8.2231 19.8258 8.55694 20.0719 8.80308C20.3181 9.04922 20.6519 9.1875 21 9.1875C21.3481 9.1875 21.6819 9.04922 21.9281 8.80308C22.1742 8.55694 22.3125 8.2231 22.3125 7.875ZM1.3125 24.9375C1.3125 22.7637 3.07617 21 5.25 21H36.75C38.9238 21 40.6875 22.7637 40.6875 24.9375C40.6875 27.1113 38.9238 28.875 36.75 28.875H5.25C3.07617 28.875 1.3125 27.1113 1.3125 24.9375ZM2.625 32.8125C2.625 32.0906 3.21562 31.5 3.9375 31.5H38.0625C38.7844 31.5 39.375 32.0906 39.375 32.8125V34.125C39.375 37.0207 37.0207 39.375 34.125 39.375H7.875C4.9793 39.375 2.625 37.0207 2.625 34.125V32.8125Z" fill="white"/>
</svg>
